<svg width="33" height="33" viewBox="0 0 33 33" fill="none" xmlns="http://www.w3.org/2000/svg">
<path d="M16.4238 32.6093C25.5062 32.6093 32.8476 25.3032 32.8476 16.3047C32.8476 7.30285 25.5062 0 16.4238 0C7.35786 0 0 7.30285 0 16.3047C0 25.3032 7.35786 32.6093 16.4238 32.6093ZM16.4238 11.5258C15.6355 11.5258 14.9949 10.8899 14.9949 10.1073C14.9949 9.32463 15.6355 8.67245 16.4402 8.67245C17.2286 8.67245 17.8691 9.32463 17.8691 10.1073C17.8691 10.8899 17.2286 11.5258 16.4238 11.5258ZM16.4238 23.9189C15.6355 23.9189 14.9785 23.2651 14.9785 22.4841V15.2775C14.9785 14.4932 15.6355 13.859 16.4238 13.859C17.2121 13.859 17.8527 14.4932 17.8527 15.2775V22.4841C17.8527 23.2651 17.2121 23.9189 16.4238 23.9189Z" fill="white"/>
</svg>
