<svg width="24" height="24" viewBox="0 0 24 24" fill="none" xmlns="http://www.w3.org/2000/svg">
<path d="M0.5 19H23.5V20H0.5V19Z" fill="white"/>
<path d="M12.5 9H14.5V17H12.5V9Z" fill="white"/>
<path d="M15.5 9H17.5V17H15.5V9Z" fill="white"/>
<path d="M18.5 9H20.5V17H18.5V9Z" fill="white"/>
<path d="M9.5 9H11.5V17H9.5V9Z" fill="white"/>
<path d="M6.5 9H8.5V17H6.5V9Z" fill="white"/>
<path d="M3.5 9H5.5V17H3.5V9Z" fill="white"/>
<path d="M21.5 8H2.5V6.5L12 2L21.5 6.5V8Z" fill="white"/>
<path d="M2.5 17H21.5V18H2.5V17Z" fill="white"/>
<path d="M12.5 8H14.5V9H12.5V8Z" fill="#212121"/>
<path d="M15.5 8H17.5V9H15.5V8Z" fill="#212121"/>
<path d="M18.5 8H20.5V9H18.5V8Z" fill="#212121"/>
<path d="M9.5 8H11.5V9H9.5V8Z" fill="#212121"/>
<path d="M6.5 8H8.5V9H6.5V8Z" fill="#212121"/>
<path d="M3.5 8H5.5V9H3.5V8Z" fill="#212121"/>
<path d="M1.5 18H22.5V19H1.5V18Z" fill="#212121"/>
<path d="M12 6.5C12.5523 6.5 13 6.05228 13 5.5C13 4.94772 12.5523 4.5 12 4.5C11.4477 4.5 11 4.94772 11 5.5C11 6.05228 11.4477 6.5 12 6.5Z" fill="#212121"/>
</svg>
