<svg width="22" height="28" viewBox="0 0 22 28" fill="none" xmlns="http://www.w3.org/2000/svg">
<path d="M18.9999 11.3334H6.99992V7.33341C6.99992 5.12808 8.79459 3.33341 10.9999 3.33341C13.2053 3.33341 14.9999 5.12808 14.9999 7.33341H17.6666C17.6666 3.65741 14.6759 0.666748 10.9999 0.666748C7.32392 0.666748 4.33325 3.65741 4.33325 7.33341V11.3334H2.99992C2.29267 11.3334 1.6144 11.6144 1.1143 12.1145C0.614203 12.6146 0.333252 13.2928 0.333252 14.0001V24.6667C0.333252 25.374 0.614203 26.0523 1.1143 26.5524C1.6144 27.0525 2.29267 27.3334 2.99992 27.3334H18.9999C19.7072 27.3334 20.3854 27.0525 20.8855 26.5524C21.3856 26.0523 21.6666 25.374 21.6666 24.6667V14.0001C21.6666 13.2928 21.3856 12.6146 20.8855 12.1145C20.3854 11.6144 19.7072 11.3334 18.9999 11.3334ZM8.41459 18.6654C8.57848 18.038 8.96517 17.4917 9.50242 17.1285C10.0397 16.7654 10.6908 16.6102 11.3341 16.692C11.9774 16.7739 12.5689 17.0871 12.9981 17.5731C13.4274 18.0592 13.665 18.6849 13.6666 19.3334C13.6658 19.7997 13.5422 20.2576 13.3081 20.6609C13.074 21.0643 12.7378 21.3988 12.3333 21.6307V24.6667H9.66659V21.6307C9.16208 21.3417 8.76638 20.895 8.54021 20.3593C8.31405 19.8237 8.26991 19.2286 8.41459 18.6654Z" fill="white"/>
</svg>
