<svg width="28" height="31" viewBox="0 0 28 31" fill="none" xmlns="http://www.w3.org/2000/svg">
<g clip-path="url(#clip0)">
<path d="M7.84809 10.6562H10.2149C10.3051 9.01967 10.6108 7.54717 11.0752 6.39314C9.39748 7.19479 8.16777 8.76598 7.84809 10.6562ZM7.84809 12.5938C8.16838 14.484 9.39748 16.0552 11.0752 16.8569C10.6102 15.7028 10.3051 14.2303 10.2149 12.5938H7.84809ZM13.5625 17.3582C14.0281 16.9071 14.8201 15.2742 14.9811 12.5938H12.1433C12.3049 15.2736 13.0969 16.9071 13.5625 17.3582ZM12.1439 10.6562H14.9817C14.8207 7.97645 14.0287 6.34289 13.5631 5.89182C13.0969 6.34289 12.3049 7.97645 12.1439 10.6562ZM16.0498 16.8569C17.7275 16.0552 18.9572 14.484 19.2769 12.5938H16.9101C16.8199 14.2303 16.5148 15.7028 16.0498 16.8569ZM25.1875 0H3.875C1.73467 0 0 1.73467 0 3.875V27.125C0 29.2653 1.73467 31 3.875 31H25.1875C26.2574 31 27.125 30.1324 27.125 29.0625V1.9375C27.125 0.867637 26.2574 0 25.1875 0ZM20.3438 25.1875H6.78125C6.24844 25.1875 5.8125 24.7516 5.8125 24.2188C5.8125 23.6859 6.24844 23.25 6.78125 23.25H20.3438C20.8766 23.25 21.3125 23.6859 21.3125 24.2188C21.3125 24.7516 20.8766 25.1875 20.3438 25.1875ZM13.5625 19.375C9.28244 19.375 5.8125 15.9051 5.8125 11.625C5.8125 7.34494 9.28244 3.875 13.5625 3.875C17.8426 3.875 21.3125 7.34494 21.3125 11.625C21.3125 15.9051 17.8426 19.375 13.5625 19.375ZM16.0498 6.39314C16.5148 7.54717 16.8199 9.01967 16.9101 10.6562H19.2769C18.9572 8.76598 17.7275 7.19479 16.0498 6.39314Z" fill="white"/>
</g>
<defs>
<clipPath id="clip0">
<rect width="27.125" height="31" fill="white"/>
</clipPath>
</defs>
</svg>
